PathFileType	4	(X/Y/Z)	/Users/visionmauri/Downloads/Videos/OAW12-top_Sports2D/OAW12-top_Sports2D_m_person00.trc
DataRate	CameraRate	NumFrames	NumMarkers	Units	OrigDataRate	OrigDataStartFrame	OrigNumFrames
25.0	25.0	10	22	m	25.0	432	1729
Frame#	Time	Hip			RHip			RKnee			RAnkle			RBigToe			RSmallToe			RHeel			LHip			LKnee			LAnkle			LBigToe			LSmallToe			LHeel			Neck			Head			Nose			RShoulder			RElbow			RWrist			LShoulder			LElbow			LWrist			
		X1	Y1	Z1	X2	Y2	Z2	X3	Y3	Z3	X4	Y4	Z4	X5	Y5	Z5	X6	Y6	Z6	X7	Y7	Z7	X8	Y8	Z8	X9	Y9	Z9	X10	Y10	Z10	X11	Y11	Z11	X12	Y12	Z12	X13	Y13	Z13	X14	Y14	Z14	X15	Y15	Z15	X16	Y16	Z16	X17	Y17	Z17	X18	Y18	Z18	X19	Y19	Z19	X20	Y20	Z20	X21	Y21	Z21	X22	Y22	Z22
432	17.29	3.6928232542554347	0.19154052566746813	0.0301	3.6528598130567325	0.09213150441323133	0.0301	3.9999584373604002	-0.07814441025764662	0.129	4.209262344996477	-0.1496814650862851	0.023	4.363367477300988	-0.2179201347055935	0.2179	4.3158084246198305	-0.2516487428992356	0.1804	4.228536896285136	-0.14573259956205564	-0.0119	3.732384466425447	0.27676940241021475	0.0301	4.06818295894934	0.08429665585946179	0.129	4.340099598776573	-0.06442830851679741	0.023	4.457589229455488	-0.1325859910697154	0.2179	4.461460267345581	-0.07452744074218472	0.1804	4.378662692094882	-0.09553492565310473	-0.0119	3.1763503608382626	0.44387078763274784	0.0008	2.904680530137228	0.5378831761689216	0.0655	3.120293400248579	0.45393528594751215	0.1076	3.171733921263739	0.25299480632719634	-0.01275	3.4267112666801167	0.058789589222305	0.0702	3.64655871347739	-0.07958058667831071	0.1076	3.3093644433533296	0.5842462271980148	-0.01275	3.618031044369625	0.5190600892243052	0.0702	3.8653057266700075	0.4433560976218729	0.1076
433	17.330023148148147	3.700918644073991	0.18425145655564742	0.0301	3.6577433957680965	0.08527741447817408	0.0301	4.0157795213204786	-0.08682961529598762	0.129	4.269118157953614	-0.18709583893609405	0.023	4.4115653032419955	-0.2546521143129749	0.2179	4.368735977586741	-0.28786403867614074	0.1804	4.303783063894357	-0.19151581906484016	-0.0119	3.7408257643673752	0.27168170712722256	0.0301	4.084796065231772	0.077215492363029	0.129	4.337923346819372	-0.065870473594787	0.023	4.459374887357876	-0.13318098396831926	0.2179	4.460402985223262	-0.07460847964530361	0.1804	4.366117280235706	-0.09258379487335941	-0.0119	3.183525805283742	0.44192719250229856	0.0008	2.90191946937963	0.53742672028684	0.0655	3.1246809006947256	0.4508001829799367	0.1076	3.1778333215472094	0.25052880088460167	-0.01275	3.4332923552916723	0.05601963388303759	0.0702	3.653645935925814	-0.08217761304544637	0.1076	3.3192766102557725	0.5855323166497335	-0.01275	3.6316892229996713	0.5246057338384721	0.0702	3.882389167506178	0.43956182773121744	0.1076
434	17.370046296296294	3.7105633874191204	0.1762595245123786	0.0301	3.6660910981358756	0.07689525229594307	0.0301	4.0392440022619684	-0.09601489261704471	0.129	4.328807939700214	-0.2269683957756318	0.023	4.460287416981394	-0.29084057345870035	0.2179	4.4196361869477405	-0.3244757757965508	0.1804	4.373677378161636	-0.24016552158654952	-0.0119	3.753060927908782	0.26660704536271285	0.0301	4.102334986732714	0.0690261554604672	0.129	4.336132356202735	-0.0684529838922046	0.023	4.460880097510832	-0.13305193152474928	0.2179	4.460018903457463	-0.07408215520514584	0.1804	4.352782668544138	-0.08957866939487594	-0.0119	3.1873721152238192	0.4379912998891487	0.0008	2.8988640766767544	0.5350526875516207	0.0655	3.124352344166731	0.4498106948378053	0.1076	3.1849541185416537	0.24707925966260508	-0.01275	3.4405973096300384	0.05276567243511279	0.0702	3.657466986964929	-0.08476366246115917	0.1076	3.3298440439839294	0.5830800766995116	-0.01275	3.643938266405721	0.5260563146883479	0.0702	3.896819260007214	0.43552366029463685	0.1076
435	17.410069444444446	3.7264603036910384	0.168135603375753	0.0301	3.6826881263813718	0.06727435941777841	0.0301	4.064299836246242	-0.1061816846507524	0.129	4.38002324948011	-0.26040902733736787	0.023	4.504447619590152	-0.3179272204673691	0.2179	4.4643015546992215	-0.35594737673152954	0.1804	4.426183863291049	-0.2782445127922592	-0.0119	3.771259395352991	0.26125134275500767	0.0301	4.113922398106786	0.0636133207541632	0.129	4.335378334239823	-0.06972266980437576	0.023	4.46695967100759	-0.13294624554641418	0.2179	4.4654012458003685	-0.07315292422072986	0.1804	4.348283007108629	-0.09108145207464624	-0.0119	3.191548691142077	0.4339087714932091	0.0008	2.9056972978714715	0.5313742226580256	0.0655	3.1232544048339075	0.44846061987483005	0.1076	3.1920144688397	0.24161403265263315	-0.01275	3.44912971588902	0.04863151006589046	0.0702	3.660065322307759	-0.09041461532661789	0.1076	3.3386112113752264	0.5792041855190456	-0.01275	3.6581377974685227	0.5188355816024648	0.0702	3.9126458794196117	0.4300086891572258	0.1076
436	17.450092592592593	3.7425698652311645	0.16109308322793647	0.0301	3.7016878488022633	0.05924157914109378	0.0301	4.083730157454504	-0.11280862828678384	0.129	4.422820095940334	-0.28103998954017256	0.023	4.54074751659541	-0.331684761763001	0.2179	4.502772890899262	-0.3739259419488355	0.1804	4.463492012505586	-0.2978730424772309	-0.0119	3.7892972380563834	0.25405028011112013	0.0301	4.1200889049083935	0.06084645926371799	0.129	4.337581111955129	-0.07211455604271712	0.023	4.4794461011633775	-0.13659490667433857	0.2179	4.475607586070188	-0.07395300566498324	0.1804	4.353145946273737	-0.09630536313013091	-0.0119	3.1949892520085	0.431744036799431	0.0008	2.9190152392767503	0.5268140614353427	0.0655	3.1206639815774997	0.45023529905640425	0.1076	3.198732965831653	0.2356342699400497	-0.01275	3.4575763698352557	0.042510808146722825	0.0702	3.6684142102271022	-0.09969554493158654	0.1076	3.3455696326599633	0.5738229532217094	-0.01275	3.672956109984298	0.5077070779117604	0.0702	3.9299163225815246	0.4216472669317851	0.1076
437	17.49011574074074	3.7529889045062386	0.1549443786149249	0.0301	3.716744523902275	0.05433535112591868	0.0301	4.094411103838801	-0.11246894810311198	0.129	4.438629130427645	-0.27875108235400736	0.023	4.557142609894259	-0.3241800906603496	0.2179	4.523135254391357	-0.3651452837847366	0.1804	4.485278723925395	-0.299309389682161	-0.0119	3.8007339640247815	0.2456680495196281	0.0301	4.127801159496664	0.05708549715492808	0.129	4.342001424684283	-0.07661265313650005	0.023	4.492019002272345	-0.14474323149551835	0.2179	4.483439464505538	-0.07714908978349945	0.1804	4.362710749840496	-0.10195601567535609	-0.0119	3.198477666764538	0.4291570991148085	0.0008	2.92813560409516	0.5234849905438912	0.0655	3.1221980652330528	0.4565119679414077	0.1076	3.207075951592561	0.2308635941099774	-0.01275	3.4685231244787658	0.03353963687058425	0.0702	3.6873369469768997	-0.11015206913563377	0.1076	3.3519787617706416	0.565502320865116	-0.01275	3.682298459050649	0.49887365518047333	0.0702	3.9410962081631027	0.41042486674072765	0.1076
438	17.53013888888889	3.7642010133570873	0.1473033423585828	0.0301	3.7304003710932547	0.047655373996376246	0.0301	4.096700565305628	-0.10727014155269086	0.129	4.420805015653631	-0.2530678405582447	0.023	4.5500976036875755	-0.2955658363242211	0.2179	4.5211208069741815	-0.3335592615252049	0.1804	4.500581451624172	-0.2928639151364043	-0.0119	3.8098327074379954	0.23928204414411083	0.0301	4.142052770549992	0.051167635399276344	0.129	4.3461488833596515	-0.08080913792116094	0.023	4.496528159419986	-0.14718197333451535	0.2179	4.48415921990685	-0.07759417267244423	0.1804	4.372776907786844	-0.10794837393267136	-0.0119	3.204899189155815	0.4228540732489198	0.0008	2.9313467856092883	0.522873728528921	0.0655	3.128480329755955	0.46201257653930483	0.1076	3.2161367318242235	0.22426135214578483	-0.01275	3.4837963035148594	0.02268102004228281	0.0702	3.7102560091273222	-0.1209212925470719	0.1076	3.358732824960657	0.5568346487709587	-0.01275	3.6872095810394687	0.49081325926590547	0.0702	3.943208636641982	0.3956524791107976	0.1076
439	17.570162037037036	3.781812716311059	0.13768151412699775	0.0301	3.7441316815419556	0.034134509569650494	0.0301	4.097192075590982	-0.10361621613158564	0.129	4.4207861415212015	-0.23379089595145947	0.023	4.555792443943785	-0.27644845452016814	0.2179	4.532621712567302	-0.3149535920405287	0.1804	4.523907918748704	-0.2909343536565224	-0.0119	3.8223512990642363	0.23578191156514294	0.0301	4.156289057540918	0.04811608088573577	0.129	4.350242241231862	-0.0832408033853696	0.023	4.49227579407371	-0.13523366502907655	0.2179	4.478460053195371	-0.07207491061375644	0.1804	4.383808986805386	-0.11230091657112362	-0.0119	3.21301837507707	0.41240866174627866	0.0008	2.9319800502028484	0.5220859723710762	0.0655	3.130753504211374	0.45913387747462486	0.1076	3.221501894294862	0.2105100469555316	-0.01275	3.496829276913472	0.010303271483982572	0.0702	3.72420293042918	-0.13423863791742144	0.1076	3.3657106311384077	0.550535781816338	-0.01275	3.6937882968302485	0.48067932686167403	0.0702	3.944348963534265	0.37836942993457445	0.1076
440	17.610185185185184	3.795491503404843	0.1282749767613374	0.0301	3.7536548968153083	0.018036900568240012	0.0301	4.108904583972837	-0.10665373916183074	0.129	4.46953515914058	-0.24547797502392166	0.023	4.600277996764025	-0.2880443653288829	0.2179	4.580873069558589	-0.32809339299448226	0.1804	4.547317028640791	-0.29457930103159785	-0.0119	3.8347900975598934	0.23040896913729436	0.0301	4.160226917819557	0.050973040187531515	0.129	4.353021167734785	-0.08005389064709867	0.023	4.486807033775342	-0.12044774414936779	0.2179	4.474042304472189	-0.06667468046366487	0.1804	4.39053449376119	-0.1044679283015102	-0.0119	3.2179085940729326	0.4003224841395219	0.0008	2.9302878172982023	0.5179729034886695	0.0655	3.1281324672427795	0.4482001388831977	0.1076	3.2215901906637128	0.19282142383263534	-0.01275	3.50102805785042	-0.0036695909170079985	0.0702	3.7270706527922375	-0.14989988578898533	0.1076	3.370400167830938	0.5447049806208798	-0.01275	3.7038044978870768	0.47003372857479564	0.0702	3.954274474596265	0.36034751639570134	0.1076
441	17.65020833333333	3.7961911848566787	0.12037501210737407	0.0301	3.757650071200657	0.008039446424284028	0.0301	4.136449734493172	-0.11571035940609392	0.129	4.518157755744536	-0.26957611240529056	0.023	4.6512399644856615	-0.3077169458040572	0.2179	4.63026017002647	-0.3477287843654567	0.1804	4.5572735932862996	-0.2990570832725918	-0.0119	3.8422428589964843	0.21950974730668257	0.0301	4.156207386817824	0.055022239367047004	0.129	4.351970190938976	-0.06824174862988641	0.023	4.485696596361507	-0.1165144273886088	0.2179	4.4764629812940155	-0.06475712509066403	0.1804	4.384901447664349	-0.08599802606594806	-0.0119	3.2180382687331925	0.3903231883492571	0.0008	2.92601957532351	0.5113419385130524	0.0655	3.1297068465184372	0.4369017237226084	0.1076	3.219271580044877	0.1798289980029113	-0.01275	3.4985042680954943	-0.016672374600827176	0.0702	3.7267874908162892	-0.16474437933952618	0.1076	3.3716722893109012	0.5380157650104815	-0.01275	3.7142613915657217	0.4605183576657891	0.0702	3.971303157333783	0.3428380241267533	0.1076
